<svg fill="#1d3249" height="64" width="64" xmlns="http://www.w3.org/2000/svg" viewBox="-2.4 -2.4 28.8 28.8" stroke="#1d3249"><path d="M12 24.134c1.848-.49 3.261-1.85 4.807-2.975 1.357-.989 2.743-1.91 3.747-3.255 1.026-1.375 1.635-2.962 2.119-4.608.55-1.87 1.231-3.767.908-5.688-.348-2.065-.99-4.465-2.796-5.524-1.86-1.092-4.314.778-6.377.145-2.247-.69-3.427-3.695-5.77-3.873C6.35-1.817 4.23-.227 2.545 1.33.877 2.872-.514 4.879-.852 7.126-1.176 9.28.41 11.214.735 13.368c.313 2.079-.583 4.295.289 6.208.908 1.994 2.59 3.707 4.613 4.548 1.988.825 4.283.562 6.363.01" fill="#7ed0ec" stroke="none" stroke-width="0"/><path d="M21.9 7.3c-.5 2.9-1.7 5.5-3.8 8-2 2.5-3.8 4.3-5.5 5.4-1 .5-1.8.5-2.5 0-.7-.4-1.3-1.1-1.7-1.9-.2-.4-.8-2.3-1.7-5.4-.9-3.2-1.4-4.9-1.6-5.1-.2-.3-.5-.3-1.1 0s-1 .5-1.2.7L2 7.9l.9-1.1c.7-.8 1.5-1.5 2.5-2.3S7.2 3.3 8 3.1c1-.2 1.7.3 2.2 1.5.3.7.6 2 .9 3.8 0 .4.2.9.4 1.8.7 2.8 1.2 4.3 1.6 4.3.6 0 1.5-1.3 2.8-3.8.6-1.1.6-2.1.1-2.8-.5-.7-1.3-.8-2.5 0 .2-1.2.7-2.2 1.5-3 1.5-1.6 3.1-2.2 4.8-1.8 1.8.3 2.5 1.7 2.1 4.2h0z"/></svg>
